<?xml version="1.0" standalone="no"?><!DOCTYPE svg PUBLIC "-//W3C//DTD SVG 1.1//EN" "http://www.w3.org/Graphics/SVG/1.1/DTD/svg11.dtd"><svg class="icon" width="200px" height="200.00px" viewBox="0 0 1024 1024" version="1.1" xmlns="http://www.w3.org/2000/svg"><path d="M959.676507 508.078691c0-244.530272-200.372563-442.760033-447.545012-442.760033-247.172449 0-447.545012 198.22976-447.545012 442.760033 0 1.440815 0.016373 2.87856 0.030699 4.315282-0.014326 1.437745-0.030699 2.87549-0.030699 4.316306 0 244.530272 200.372563 442.760033 447.545012 442.760033 247.172449 0 447.545012-198.22976 447.545012-442.760033 0-1.440815-0.017396-2.87856-0.030699-4.316306C959.660134 510.956228 959.676507 509.519506 959.676507 508.078691zM867.215676 512.393973c-0.007163 0.584308-0.00614 1.170662-0.016373 1.753947l0.031722 0c0.008186 0.854461 0.023536 1.706875 0.023536 2.563382 0 197.981097-158.994154 358.477464-355.125113 358.477464-196.127889 0-355.123067-160.496367-355.123067-358.477464 0-0.856507 0.016373-1.708921 0.023536-2.563382l0.032746 0c-0.00921-0.583285-0.008186-1.169639-0.016373-1.753947 0.007163-0.584308 0.00614-1.170662 0.016373-1.753947l-0.032746 0c-0.007163-0.854461-0.023536-1.706875-0.023536-2.563382 0-197.981097 158.995177-358.477464 355.123067-358.477464 196.130959 0 355.125113 160.496367 355.125113 358.477464 0 0.856507-0.016373 1.708921-0.023536 2.563382l-0.031722 0C867.209536 511.223311 867.208513 511.809665 867.215676 512.393973zM735.942887 465.159182 555.273061 465.159182 555.273061 284.489356c0-16.019859-12.986779-29.007661-29.006637-29.007661l-33.853016 0c-16.019859 0-29.007661 12.986779-29.007661 29.007661l0 180.669826L282.736944 465.159182c-16.020882 0-29.007661 12.986779-29.007661 29.007661l0 33.851992c0 16.019859 12.986779 29.007661 29.007661 29.007661l180.669826 0 0 180.670849c0 16.019859 12.986779 29.007661 29.007661 29.007661l33.853016 0c16.018835 0 29.006637-12.986779 29.006637-29.007661L555.274084 557.025473l180.669826 0c16.020882 0 29.008684-12.986779 29.008684-29.007661l0-33.851992C764.950548 478.145961 751.963769 465.159182 735.942887 465.159182z" /></svg>
