<?xml version="1.0" standalone="no"?><!DOCTYPE svg PUBLIC "-//W3C//DTD SVG 1.1//EN" "http://www.w3.org/Graphics/SVG/1.1/DTD/svg11.dtd"><svg t="1529548623246" class="icon" style="" viewBox="0 0 1024 1024" version="1.1" xmlns="http://www.w3.org/2000/svg" p-id="1066" xmlns:xlink="http://www.w3.org/1999/xlink" width="200" height="200"><defs><style type="text/css"></style></defs><path d="M875.489359 204.701934l-0.461987 0.359777c-5.408922-6.184691-13.598962-10.010389-22.643472-9.721137-15.654393 0.50287-27.924632 13.12471-27.402342 28.196509l0.345468 2.526617c0.227927 6.600684 2.873106 12.575845 7.089244 17.165048 32.565961 55.267693 51.261084 119.686194 51.261084 188.477213 0 89.897262-31.908755 172.336303-85.011652 236.623976-0.086878 0.084834-0.176822 0.163535-0.262678 0.249391L511.985691 954.997683 225.568358 668.579328c-0.405771-0.405771-0.822786-0.791101-1.244911-1.167231-52.652154-64.153779-84.260413-146.236109-84.260413-235.706136 0-205.343809 166.466417-371.810226 371.810226-371.810226 67.159757 0 130.156525 17.811011 184.533974 48.96035 5.098205 3.930974 11.619165 6.201045 18.658327 5.976184 15.657459-0.50287 27.921566-13.12471 27.402342-28.196509l-0.345468-2.526617c-0.306628-8.843158-4.953068-16.56099-11.900241-21.330081l0.022486-0.031685c-0.178866-0.106298-0.359777-0.208507-0.538644-0.313783-0.819719-0.536599-1.670102-1.031293-2.547058-1.484081C663.865803 24.087691 590.284229 2.958962 511.76083 2.958962c-236.727208 0-428.637635 191.904294-428.637635 428.637635 0 102.482306 35.971579 196.559933 95.969523 270.30913l0.865714-0.001022c1.319523 2.555235 3.046862 4.95409 5.189172 7.095377l306.628221 306.631287c11.164334 11.158201 29.259487 11.158201 40.420754 0l306.631287-306.631287c2.401921-2.401921 4.283596-5.126824 5.65218-8.032637l0.716488-0.001022c59.539024-73.607127 95.202952-167.322932 95.202952-269.369826C940.399487 348.273444 916.623534 270.505373 875.489359 204.701934zM511.898813 231.334639c-110.676434 0-200.39994 89.72044-200.39994 200.396874 0 110.679501 89.722484 200.398918 200.39994 200.398918 110.679501 0 200.398918-89.72044 200.398918-200.398918C712.297731 321.054057 622.577291 231.334639 511.898813 231.334639zM511.429672 574.128637c-78.90464 0-142.869331-63.967757-142.869331-142.866265 0-78.901574 63.964691-142.866265 142.869331-142.866265 78.898508 0 142.860132 63.964691 142.860132 142.866265C654.289804 510.16088 590.328179 574.128637 511.429672 574.128637z" p-id="1067" fill="#2196f3"></path></svg>