<?xml version="1.0" standalone="no"?><!DOCTYPE svg PUBLIC "-//W3C//DTD SVG 1.1//EN" "http://www.w3.org/Graphics/SVG/1.1/DTD/svg11.dtd"><svg t="1529548931992" class="icon" style="" viewBox="0 0 1024 1024" version="1.1" xmlns="http://www.w3.org/2000/svg" p-id="10812" xmlns:xlink="http://www.w3.org/1999/xlink" width="200" height="200"><defs><style type="text/css"></style></defs><path d="M522.24 778.24c-110.592 6.144-206.848-59.392-249.856-149.504-47.104-98.304-36.864-194.56 28.672-280.576 63.488-81.92 151.552-114.688 256-102.4 51.2 6.144 96.256 26.624 137.216 59.392 22.528 18.432 20.48 26.624-2.048 38.912-20.48 12.288-40.96 22.528-61.44 34.816-57.344 32.768-114.688 65.536-169.984 98.304-30.72 18.432-36.864 47.104-18.432 77.824 18.432 32.768 53.248 40.96 92.16 18.432 110.592-63.488 223.232-126.976 333.824-190.464 18.432-10.24 20.48-20.48 12.288-38.912-28.672-61.44-71.68-112.64-129.024-151.552C620.544 112.64 487.424 98.304 348.16 163.84c-137.216 63.488-212.992 176.128-225.28 323.584-10.24 122.88 36.864 225.28 126.976 311.296 124.928 118.784 333.824 137.216 477.184 43.008 36.864-24.576 36.864-24.576 14.336-63.488-24.576-40.96-49.152-49.152-94.208-28.672-38.912 18.432-81.92 30.72-124.928 28.672z" fill="#3988FF" p-id="10813"></path><path d="M901.12 600.064c-2.048-30.72-18.432-57.344-32.768-81.92-4.096-8.192-12.288-6.144-18.432-2.048-26.624 14.336-53.248 30.72-79.872 45.056-12.288 6.144-14.336 14.336-6.144 24.576 14.336 26.624 30.72 51.2 45.056 77.824 6.144 12.288 14.336 14.336 24.576 6.144 16.384-10.24 32.768-20.48 47.104-30.72 12.288-8.192 20.48-20.48 20.48-38.912z" fill="#DAE9FF" p-id="10814"></path></svg>