<?xml version="1.0" standalone="no"?><!DOCTYPE svg PUBLIC "-//W3C//DTD SVG 1.1//EN" "http://www.w3.org/Graphics/SVG/1.1/DTD/svg11.dtd"><svg t="1529546840534" class="icon" style="" viewBox="0 0 1024 1024" version="1.1" xmlns="http://www.w3.org/2000/svg" p-id="8259" xmlns:xlink="http://www.w3.org/1999/xlink" width="200" height="200"><defs><style type="text/css"></style></defs><path d="M627.035119 610.095729c17.96339 0 32.490305-13.433492 32.490305-30.025763s-14.526915-30.025763-32.490305-30.025763h-19.733695l23.291661-35.996203c9.198644-14.231864 4.18278-32.663864-11.194577-41.202983-15.412068-8.469695-35.336678-3.835661-44.587389 10.361491l-43.250983 66.855051h-4.356339l-43.268339-66.855051c-9.233356-14.197153-29.157966-18.831186-44.552678-10.361491-15.412068 8.504407-20.427932 26.953763-11.229288 41.202983l23.309016 36.013559h-19.785762c-17.946034 0-32.490305 13.416136-32.490305 30.025763 0 16.574915 14.544271 30.025763 32.490305 30.025763h65.171525v37.506169h-65.171525c-17.946034 0-32.490305 13.433492-32.490305 30.025763s14.544271 30.025763 32.490305 30.025763h65.171525v130.100067c0 16.592271 14.544271 30.025763 32.490305 30.025763 17.946034 0 32.490305-13.433492 32.490305-30.025763v-130.100067h65.206238c17.96339 0 32.490305-13.433492 32.490305-30.025763s-14.526915-30.025763-32.490305-30.025763h-65.206238v-37.523525h65.206238z" fill="#E76262" p-id="8260"></path><path d="M800.108475 0H223.891525C157.817492 0 104.135593 53.143864 104.135593 118.471593v787.07417C104.135593 970.83878 157.834847 1024 223.891525 1024h576.21695c66.021966 0 119.755932-53.16122 119.755932-118.454237V118.454237C919.864407 53.16122 866.130441 0 800.108475 0zM223.891525 61.162305h576.21695c31.934915 0 57.89939 25.704136 57.899389 57.291932v19.941966c-0.642169 1.197559-1.336407 2.360407-1.839728 3.662102-40.265763 105.714983-181.942237 179.547119-344.532611 179.547119-161.427525 0-302.843661-73.17261-343.925152-177.898305-0.46861-1.214915-1.128136-2.273627-1.735593-3.384407v-21.868475c0-31.587797 25.981831-57.274576 57.899389-57.274576z m576.21695 901.658034H223.891525c-31.934915 0-57.89939-25.68678-57.899389-57.274576V251.713085c76.088407 80.062915 204.8 131.054644 345.643389 131.054644 141.589695 0 270.457492-51.234712 346.372339-131.766237v654.544271c0 31.587797-25.964475 57.274576-57.882033 57.274576z" fill="#E76262" p-id="8261"></path></svg>