<?xml version="1.0" standalone="no"?><!DOCTYPE svg PUBLIC "-//W3C//DTD SVG 1.1//EN" "http://www.w3.org/Graphics/SVG/1.1/DTD/svg11.dtd"><svg t="1529546869037" class="icon" style="" viewBox="0 0 1024 1024" version="1.1" xmlns="http://www.w3.org/2000/svg" p-id="8960" xmlns:xlink="http://www.w3.org/1999/xlink" width="200" height="200"><defs><style type="text/css"></style></defs><path d="M512 0C228.266667 0 0 228.266667 0 512s228.266667 512 512 512 512-228.266667 512-512S795.733333 0 512 0z m-192 571.733333v70.4c0 25.6 76.8 61.866667 192 61.866667s192-36.266667 192-61.866667v-70.4c-44.8 27.733333-119.466667 40.533333-192 40.533334-72.533333 2.133333-147.2-12.8-192-40.533334zM512 320c-123.733333 0-192 38.4-192 59.733333 0 21.333333 68.266667 59.733333 192 59.733334s192-38.4 192-59.733334c0-21.333333-68.266667-59.733333-192-59.733333z m-192 119.466667V512c0 19.2 68.266667 59.733333 192 59.733333s192-38.4 192-59.733333v-72.533333c-44.8 27.733333-119.466667 40.533333-192 40.533333-72.533333 0-147.2-12.8-192-40.533333zM746.666667 512v130.133333c0 68.266667-117.333333 104.533333-234.666667 104.533334s-234.666667-36.266667-234.666667-104.533334V379.733333c0-66.133333 117.333333-102.4 234.666667-102.4s234.666667 34.133333 234.666667 102.4V512z" p-id="8961" fill="#5fc40e"></path></svg>