<?xml version="1.0" standalone="no"?><!DOCTYPE svg PUBLIC "-//W3C//DTD SVG 1.1//EN" "http://www.w3.org/Graphics/SVG/1.1/DTD/svg11.dtd"><svg t="1529548868170" class="icon" style="" viewBox="0 0 1024 1024" version="1.1" xmlns="http://www.w3.org/2000/svg" p-id="9148" xmlns:xlink="http://www.w3.org/1999/xlink" width="200" height="200"><defs><style type="text/css"></style></defs><path d="M920.395 249.62H729.597c11.709-20.054 17.758-43.191 17.758-65.765 0-59.603-41.006-119.99-119.483-119.99-36.302 0-67.111 12.664-91.642 37.592-13.223 13.33-23.248 29.403-31.088 46.154-7.734-16.751-17.536-32.715-30.48-46.101-24.367-24.981-55.007-37.645-91.251-37.645-46.492 0-74.56 20.783-89.848 38.151-19.163 21.676-29.689 50.636-29.689 81.839 0 22.574 6.044 45.711 17.81 65.765H103.663c-15.742 0-28.512 12.828-28.512 28.565v259.418c0 15.737 12.77 28.623 28.512 28.623h38.711V931.57c0 15.742 12.77 28.565 28.512 28.565h682.229c15.742 0 28.458-12.823 28.458-28.565V566.226h38.764c15.8 0 28.512-12.828 28.512-28.623V278.185c0.056-15.795-12.655-28.565-28.454-28.565zM580.56 131.435c14.878-15.066 33.066-22.534 55.78-22.534 50.336 0 68.273 37.046 68.273 68.824 0 19.042-6.484 37.416-17.634 50.457-12.249 14.208-29.269 21.492-50.515 21.492l-99.564-0.858c3.797-36.308 15.125-88.421 43.66-117.381z m-273.108 46.554c0-18.728 5.919-35.69 16.779-48.015 11.959-13.61 29.168-20.562 51.248-20.562 22.269 0 40.205 7.261 54.731 22.149 28.126 28.859 38.923 81.511 42.16 118.059h-96.891c-53.753 0-68.027-45.03-68.027-71.631z m-189.919 113.68h300.193v220.332H117.533V291.669z m67.174 262.945h233.019v363.145H184.707V554.614z m275.005 363.144V291.669h104.577v626.089H459.712z m379.108 0H606.669V554.382H838.82v363.376z m68.818-405.757H606.669V291.669h300.969v220.332z m0 0" fill="#FF9900" p-id="9149"></path></svg>