<?xml version="1.0" standalone="no"?><!DOCTYPE svg PUBLIC "-//W3C//DTD SVG 1.1//EN" "http://www.w3.org/Graphics/SVG/1.1/DTD/svg11.dtd"><svg t="1516588700765" class="icon" style="" viewBox="0 0 1024 1024" version="1.1" xmlns="http://www.w3.org/2000/svg" p-id="3608" xmlns:xlink="http://www.w3.org/1999/xlink" width="200" height="200"><defs><style type="text/css"></style></defs><path d="M995.0208 407.04c0-2.1504-0.3072-4.3008-1.024-6.3488l-65.1264-206.848L928.8704 100.352c0-11.8784-9.6256-21.4016-21.4016-21.4016L113.152 78.9504c-11.8784 0-21.4016 9.6256-21.4016 21.4016l0 87.04c-0.3072 0.6144-0.512 1.3312-0.7168 1.9456L23.6544 399.6672c-0.6144 2.048-1.024 4.1984-1.024 6.3488l-0.4096 48.5376c0 0.1024 0 0.1024 0 0.2048 0 47.3088 24.064 89.088 60.6208 113.7664-1.024 2.56-1.6384 5.3248-1.6384 8.192l0 342.2208c0 11.8784 9.6256 21.4016 21.4016 21.4016l809.2672 0c11.8784 0 21.4016-9.6256 21.4016-21.4016L933.2736 626.2784c0-11.8784-9.6256-21.4016-21.4016-21.4016s-21.4016 9.6256-21.4016 21.4016l0 271.2576L124.1088 897.536l0-310.272c11.264 2.9696 23.1424 4.608 35.328 4.608 49.2544 0 92.4672-26.0096 116.6336-65.024 24.2688 39.0144 67.4816 65.024 116.6336 65.024 48.7424 0 91.648-25.4976 116.0192-64 24.3712 38.4 67.2768 64 116.0192 64 49.2544 0 92.4672-26.0096 116.6336-65.024C765.6448 565.8624 808.8576 591.872 858.112 591.872c75.6736 0 137.216-61.5424 137.216-137.216 0 0 0-0.1024 0-0.1024L995.0208 407.04zM134.5536 121.856l751.4112 0 0 52.6336L134.5536 174.4896 134.5536 121.856zM858.112 549.0688c-52.0192 0-94.4128-42.2912-94.4128-94.4128 0-11.8784-9.6256-21.4016-21.4016-21.4016l-1.7408 0c-11.8784 0-21.4016 9.6256-21.4016 21.4016 0 52.0192-42.2912 94.4128-94.4128 94.4128S530.432 506.6752 530.432 454.656c0-11.8784-9.6256-21.4016-21.4016-21.4016l-0.4096 0c-11.8784 0-21.4016 9.6256-21.4016 21.4016 0 52.0192-42.2912 94.4128-94.4128 94.4128-52.0192 0-94.4128-42.2912-94.4128-94.4128 0-11.8784-9.6256-21.4016-21.4016-21.4016l-1.7408 0c-11.8784 0-21.4016 9.6256-21.4016 21.4016 0 52.0192-42.2912 94.4128-94.4128 94.4128-52.0192 0-94.3104-42.2912-94.4128-94.3104l0.4096-45.1584L126.976 217.2928l764.3136 0 60.8256 193.2288 0.2048 44.1344C952.4224 506.7776 910.1312 549.0688 858.112 549.0688z" p-id="3609"></path></svg>