<?xml version="1.0" standalone="no"?><!DOCTYPE svg PUBLIC "-//W3C//DTD SVG 1.1//EN" "http://www.w3.org/Graphics/SVG/1.1/DTD/svg11.dtd"><svg t="1529548782621" class="icon" style="" viewBox="0 0 1228 1024" version="1.1" xmlns="http://www.w3.org/2000/svg" p-id="7209" xmlns:xlink="http://www.w3.org/1999/xlink" width="239.84375" height="200"><defs><style type="text/css"></style></defs><path d="M801.963289 1023.832055c-235.64022 0-426.649172-191.022948-426.649172-426.677163s191.008952-426.677163 426.649172-426.677163S1228.640453 361.500677 1228.640453 597.154892 1037.617505 1023.832055 801.963289 1023.832055z m0-785.140842c-197.950661 0-358.407697 160.471032-358.407697 358.407698s160.471032 358.463679 358.407697 358.463679 358.407697-160.457037 358.407698-358.407698-160.457037-358.407697-358.407698-358.407697z m247.256387 377.189498L820.367215 844.733172a26.955103 26.955103 0 0 1-38.123417 0l-228.82447-228.852461a26.927112 26.927112 0 0 1 0-38.137411l228.82447-228.838466a26.969098 26.969098 0 0 1 38.123417 0l228.852461 228.852461a26.969098 26.969098 0 0 1 0 38.123416z m-65.610344-32.973116L815.930679 414.823076a19.747482 19.747482 0 0 0-27.990761 0L620.317247 582.907595a19.87344 19.87344 0 0 0 0 27.990761l167.678653 168.182486a19.677505 19.677505 0 0 0 27.990761 0L983.609332 610.898356a19.831454 19.831454 0 0 0 0-27.990761z m-75.575054-481.651018a53.630298 53.630298 0 0 0-53.588312-53.546325H153.039485a53.616302 53.616302 0 0 0-53.588312 53.546325v69.669004h93.503137a84.168218 84.168218 0 1 1 0 168.336436H93.097271c-1.007667 0-1.931362-0.265912-2.925035-0.293903v66.534039c0.993672 0 1.917367-0.293903 2.925035-0.293903h99.857039a84.168218 84.168218 0 1 1 0 168.336435H93.097271c-0.993672 0-1.931362-0.265912-2.925035-0.293903v83.622399c0.993672 0 1.917367-0.293903 2.925035-0.293903h99.857039a84.112236 84.112236 0 1 1 0 168.224472H99.451173v97.841705a53.630298 53.630298 0 0 0 53.588312 53.53233h330.976752a495.436467 495.436467 0 0 0 68.269466 47.766233H153.039485a101.36854 101.36854 0 0 1-101.34055-101.312558V847.420285c-20.6012-4.310577-35.954132-18.040045-43.95949-39.74688C0.587806 788.261812 0 764.623614 0 743.980428c0-24.323971 3.792748-43.525633 11.60217-58.668634a65.414408 65.414408 0 0 1 30.789837-30.258013V595.503437a65.554362 65.554362 0 0 1-30.789837-30.286003C3.792748 550.074432 0 530.914757 0 506.618776s3.792748-43.385679 11.60217-58.598658a65.582353 65.582353 0 0 1 30.789837-30.286003v-59.550344a65.526371 65.526371 0 0 1-30.789837-30.244017C3.792748 312.810748 0 293.623081 0 269.29911c0-62.979212 26.591223-85.483784 51.698935-92.789372V101.298564A101.424522 101.424522 0 0 1 153.039485 0h701.336504a101.452513 101.452513 0 0 1 101.354545 101.298564v25.583555a491.629724 491.629724 0 0 0-47.766233-13.001708zM93.097271 776.771605h99.857039a36.038105 36.038105 0 1 0 0-72.07621H93.097271a36.038105 36.038105 0 1 0 0 72.07621z m0-251.273061h99.857039a36.094086 36.094086 0 1 0 0-72.174176H93.097271c-1.035658 0-1.917367 0.503834-2.925035 0.587806v2.295242l-13.99538 1.931362a35.730206 35.730206 0 0 0-19.131685 31.26568 36.136072 36.136072 0 0 0 36.0521 36.122077zM57.003184 255.135785a36.122077 36.122077 0 0 0 36.094087 36.080091h99.857039a36.094086 36.094086 0 1 0 0-72.174177H102.656115v2.015335H83.13256c-14.961062 4.408545-26.129375 17.704156-26.129376 34.078751z" p-id="7210" fill="#5ce751"></path></svg>