<?xml version="1.0" standalone="no"?><!DOCTYPE svg PUBLIC "-//W3C//DTD SVG 1.1//EN" "http://www.w3.org/Graphics/SVG/1.1/DTD/svg11.dtd"><svg t="1516154864780" class="icon" style="" viewBox="0 0 1024 1024" version="1.1" xmlns="http://www.w3.org/2000/svg" p-id="1934" xmlns:xlink="http://www.w3.org/1999/xlink" width="200" height="200"><defs><style type="text/css"></style></defs><path d="M372.102 281.042l-83.452 149.517-83.451-149.517-32.163 0 91.708 159.082-69.978 0 0 17.819 79.976 0 0 45.634-79.976 0 0 17.82 79.976 0 0 69.978 27.818 0 0-69.978 79.974 0 0-17.82-79.974 0 0-45.634 79.974 0 0-17.819-69.978 0 91.709-159.082zM788.492 294.568l-155.778 0 0-116.825c0-9.636-7.886-17.522-17.522-17.522l-581.201 0c-9.636 0-17.522 7.886-17.522 17.522l0 581.201c0 9.636 7.886 17.522 17.522 17.522l134.71 0c12.307 53.947 60.596 94.185 118.265 94.138 57.601-0.047 105.783-40.267 118.073-94.138l210.156 0c0.41 0 0.814-0.033 1.215-0.063l0 0.063 58.62 0c12.455 53.742 60.649 93.777 118.176 93.731 57.457-0.045 105.54-40.065 117.978-93.731l78.829 0c9.636 0 17.522-7.886 17.522-17.522l0-245.331c0.003-120.475-98.569-219.045-219.042-219.045zM286.934 835.558c-47.585 0.037-86.189-38.505-86.227-86.09s38.505-86.189 86.09-86.227c47.585-0.037 86.189 38.505 86.227 86.09 0.036 47.584-38.505 86.189-86.09 86.227zM597.667 723.897c0 9.636-7.886 17.522-17.522 17.522l-172.34 0c-4.113-63.262-56.744-113.276-121.034-113.225-64.225 0.053-116.733 50.048-120.839 113.225l-96.892 0c-9.636 0-17.522-7.886-17.522-17.522l0-511.106c0-9.636 7.886-17.522 17.522-17.522l511.106 0c9.636 0 17.522 7.886 17.522 17.522l0 511.106zM793.174 835.151c-47.585 0.037-86.189-38.505-86.227-86.09s38.505-86.189 86.09-86.227c47.585-0.037 86.189 38.505 86.227 86.09 0.037 47.584-38.505 86.189-86.09 86.227zM972.488 723.897c0 9.636-7.886 17.522-17.522 17.522l-40.896 0c-3.915-63.453-56.633-113.685-121.062-113.633-64.363 0.053-116.958 50.265-120.866 113.633l-39.429 0 0-411.806 149.933 0c104.412 0 189.839 85.428 189.839 189.839l0 204.442zM802.717 393.958l-96.38 0c-9.636 0-17.522 7.886-17.522 17.522l0 108.064c0 9.636 7.886 17.522 17.522 17.522l181.078 0c9.636 0 17.522-7.886 17.522-17.522l0-23.365c0-56.222-46-102.221-102.221-102.221zM861.13 502.021l-128.507 0c-4.819 0-8.763-3.941-8.763-8.763l0-55.492c0-4.819 3.941-8.763 8.763-8.763l73.015 0c35.339 0 64.254 28.913 64.254 64.254 0 4.819-3.943 8.763-8.763 8.763z" p-id="1935"></path></svg>