<?xml version="1.0" standalone="no"?><!DOCTYPE svg PUBLIC "-//W3C//DTD SVG 1.1//EN" "http://www.w3.org/Graphics/SVG/1.1/DTD/svg11.dtd"><svg t="1518154663675" class="icon" style="" viewBox="0 0 1024 1024" version="1.1" xmlns="http://www.w3.org/2000/svg" p-id="2252" xmlns:xlink="http://www.w3.org/1999/xlink" width="30" height="30"><defs><style type="text/css"></style></defs><path d="M512 1024C229.180952 1024 0 794.819048 0 512S229.180952 0 512 0 1024 229.180952 1024 512 794.819048 1024 512 1024z m0-959.975619a448.024381 448.024381 0 1 0 0 896 448.024381 448.024381 0 0 0 0-896zM243.809524 534.186667A46.811429 46.811429 0 0 1 290.474667 487.619048h464.993523c25.795048 0 46.665143 20.675048 46.665143 46.567619a46.811429 46.811429 0 0 1-46.665143 46.567619H290.474667A46.470095 46.470095 0 0 1 243.809524 534.186667z" fill="#0B89FF" p-id="2253"></path></svg>
