<?xml version="1.0" standalone="no"?><!DOCTYPE svg PUBLIC "-//W3C//DTD SVG 1.1//EN" "http://www.w3.org/Graphics/SVG/1.1/DTD/svg11.dtd"><svg t="1516155148953" class="icon" style="" viewBox="0 0 1024 1024" version="1.1" xmlns="http://www.w3.org/2000/svg" p-id="1025" xmlns:xlink="http://www.w3.org/1999/xlink" width="200" height="200"><defs><style type="text/css"></style></defs><path d="M829.12 79.616l-57.536 0c-16.064 0-34.368 9.792-34.368 25.728 0 15.936 18.304 31.872 34.368 31.872l57.536 0c34.24 0 57.472 23.296 57.472 57.536l0 662.464c0 34.304-23.232 57.536-57.472 57.536L209.472 914.752c-34.24 0-72.192-23.232-72.192-57.536L137.28 194.688c0-34.24 23.232-57.536 57.536-57.536l72.256 0c15.936 0 21.952-15.936 21.952-31.872 0-15.936-6.08-25.728-21.952-25.728L194.816 79.552c-80.832 0-115.072 50.24-115.072 116.352l0 655.04c0 71.104 42.816 121.28 121.216 121.28l622.08 0c78.336 0 121.28-41.6 121.28-121.28L944.32 195.968C944.256 129.856 903.808 79.616 829.12 79.616L829.12 79.616 829.12 79.616zM267.072 339.2c0 16 13.44 29.44 29.312 29.44l432.192 0c15.936 0 29.504-13.504 29.504-29.44 0-15.936-13.568-29.312-29.504-29.312L296.448 309.888C280.512 309.824 267.072 323.264 267.072 339.2L267.072 339.2 267.072 339.2zM727.488 468.992 296.448 468.992c-15.936 0-29.312 13.504-29.312 29.376 0 15.936 13.44 29.376 29.312 29.376l432.192 0c15.936 0 29.504-13.44 29.504-29.376C756.8 481.216 743.36 468.992 727.488 468.992L727.488 468.992 727.488 468.992zM727.488 641.6 296.448 641.6c-15.936 0-29.312 13.504-29.312 29.504 0 15.872 13.44 29.312 29.312 29.312l432.192 0c15.936 0 29.504-13.44 29.504-29.312C756.8 653.888 743.36 641.6 727.488 641.6L727.488 641.6 727.488 641.6zM412.736 151.872l200.896 0c23.232 0 42.88-23.296 42.88-50.24S636.864 51.456 612.352 51.456L412.736 51.456c-24.448 0-44.032 23.232-44.032 50.176S388.288 151.872 412.736 151.872L412.736 151.872 412.736 151.872z" p-id="1026"></path></svg>