<?xml version="1.0" standalone="no"?><!DOCTYPE svg PUBLIC "-//W3C//DTD SVG 1.1//EN" "http://www.w3.org/Graphics/SVG/1.1/DTD/svg11.dtd"><svg t="1516588476811" class="icon" style="" viewBox="0 0 1024 1024" version="1.1" xmlns="http://www.w3.org/2000/svg" p-id="2942" xmlns:xlink="http://www.w3.org/1999/xlink" width="200" height="200"><defs><style type="text/css"></style></defs><path d="M541.93664 840.76032l219.4688 132.38272c39.08096 23.59808 87.42912-11.41248 77.0304-55.91552l-58.05568-249.63072c-4.29056-18.6368 2.02752-38.17472 16.49152-50.7136l193.82784-167.84896c34.56512-29.93664 16.1536-86.63552-29.36832-90.58816l-255.49824-21.9136c-19.08736-1.58208-35.69152-13.66528-43.14624-31.2832l-99.7376-235.39712c-17.8432-42.02496-77.37344-42.02496-95.10912 0l-99.7376 235.39712c-7.45472 17.61792-24.05888 29.70112-43.14624 31.2832L69.2224 358.33344C23.7056 362.28608 5.29408 418.99008 39.85408 448.9216l193.82784 167.84896c14.45888 12.53888 20.7872 32.08192 16.49152 50.7136l-58.0608 249.63072c-10.38848 44.50304 37.95456 79.5136 77.03552 55.91552l219.47392-132.27008C505.00096 830.92992 525.55776 830.92992 541.93664 840.76032L541.93664 840.76032z" p-id="2943" fill="#bfbfbf"></path></svg>