<?xml version="1.0" standalone="no"?><!DOCTYPE svg PUBLIC "-//W3C//DTD SVG 1.1//EN" "http://www.w3.org/Graphics/SVG/1.1/DTD/svg11.dtd"><svg t="1529546770415" class="icon" style="" viewBox="0 0 1024 1024" version="1.1" xmlns="http://www.w3.org/2000/svg" p-id="7221" xmlns:xlink="http://www.w3.org/1999/xlink" width="200" height="200"><defs><style type="text/css"></style></defs><path d="M995.224738 631.967213c-37.628943-138.164774-118.262391-244.844106-244.076169-317.350216-14.52682-8.319324-29.757582-15.294757-44.732365-22.846143 3.007756-3.32773 5.503553-5.631542 7.99935-7.99935 25.981889-24.382019 49.275996-52.539731 61.371013-85.817028 5.887522-16.12669 7.359402-23.166118 11.519064-38.140901 7.615381-47.228163-1.151906-76.025823-29.757582-99.895883-38.52487-32.253379-82.233319-36.093067-128.501559-17.150607-3.32773 1.215901-5.439558 2.175823-8.575303-0.831932-59.579159-55.355502-155.059401-55.867461-214.958535-1.215901-2.815771 2.559792-4.79961 3.19974-8.447314 1.535875A121.142157 121.142157 0 0 0 321.2315 34.191782c-49.403986 10.111178-90.296663 51.45182-83.065251 108.023223 6.27149 49.084012 25.59792 91.512565 58.875216 128.11759 6.847444 7.487392 14.142851 14.654809 21.502253 22.206196l-5.503553 2.623787C142.941986 371.700359 28.071319 538.08684 14.632411 727.319465c-3.711698 52.283752-5.375563 99.255935 12.734965 155.443371 25.59792 79.417547 93.240424 141.364514 179.953379 141.172529 204.335398-0.447964 408.670795 0.063995 612.942199-0.255979 65.72266-0.12799 116.214558-29.117634 152.883578-81.913344 18.622487-26.813821 25.341941-57.72331 32.509358-89.336742 2.879766-12.79896 6.143501 12.287002 6.143501-42.172573s-1.215901-121.398136-16.574653-178.289514z m-35.901083 182.705155c-4.351646 29.117634-9.279246 59.771144-25.72591 84.281152-32.381369 48.188085-94.392331 74.745927-152.37162 74.809922-180.337348 0.319974-360.802685-0.191984-541.268022 0.255979-76.601776 0.191984-148.787911-42.428553-167.346403-116.214558-11.775043-46.908189-10.495147-105.527426-7.231412-153.395536 11.903033-172.849956 168.37032-335.908707 318.566116-405.79103 1.59987-0.767938-43.260485-40.12474-49.339991-46.972183-29.373613-33.469281-47.740121-60.539081-53.307669-105.335442-6.783449-55.035528 34.365208-71.226213 59.259186-76.473786 23.038128-4.863605 71.99415 19.710399 74.425953 17.342591a138.164774 138.164774 0 0 1 189.744583 1.087911c2.879766 2.687782 4.735615 1.855849 7.487391 0.639948 40.892677-17.342591 75.385875-28.029723 109.495104 1.535875 25.277946 21.822227 25.72591 38.012911 19.646404 72.314125-3.775693 14.206846-27.133795 52.219757-36.029073 63.9948-32.893327 43.580459-65.146707 71.354202-67.386525 73.530026-0.12799 0.191984 70.39428 33.341291 82.105329 42.300563 108.983145 82.873267 182.385181 147.060051 215.598483 273.321793 17.470581 66.298613 34.173223 130.869367 23.678076 198.76785zM537.405936 624.415826h125.237824v-49.915944H537.405936l125.237824-127.669627v-22.142201h-49.787955s-43.452469 41.916594-52.987694 52.347747c-3.903683 3.32773-32.765338 34.173223-46.972184 48.316074L446.789298 459.69321c-8.383319-8.895277-33.853249-35.005156-33.853249-35.005156H362.892115l0.191984 22.142201c0 5.055589 124.533882 127.669627 124.533882 127.669627H362.892115v49.915944h124.789861v50.171924H363.148094v49.59597h124.725866v100.023873h49.979939l-0.447963-100.023873h125.429809v-49.851949H537.853899l-0.447963-49.915945z" fill="#5fc40e" p-id="7222"></path></svg>