<?xml version="1.0" standalone="no"?><!DOCTYPE svg PUBLIC "-//W3C//DTD SVG 1.1//EN" "http://www.w3.org/Graphics/SVG/1.1/DTD/svg11.dtd"><svg t="1517969527532" class="icon" style="" viewBox="0 0 1074 1024" version="1.1" xmlns="http://www.w3.org/2000/svg" p-id="2085" xmlns:xlink="http://www.w3.org/1999/xlink" width="209.765625" height="200"><defs><style type="text/css"></style></defs><path d="M220.601411 1024a25.103786 25.103786 0 0 1-19.082029-8.841915 24.778624 24.778624 0 0 1-5.562778-20.335155l58.257842-339.527048-246.669428-240.370032a25.042505 25.042505 0 0 1 13.899441-42.695071l341.069068-49.505971 152.388597-308.827968a24.948709 24.948709 0 0 1 44.734839 0l152.526167 308.827968 341.070318 49.510974a25.036252 25.036252 0 0 1 13.894439 42.69507l-246.798243 240.370032 58.266596 339.527048a24.996232 24.996232 0 0 1-36.268111 26.263115L537.275797 860.806007 232.227216 1021.086045a24.729849 24.729849 0 0 1-11.630808 2.913955zM509.824589 492.747211" fill="#F4BB27" p-id="2086"></path></svg>